<?xml version="1.0" encoding="utf-8"?>
<!-- Generator: Adobe Illustrator 24.3.0, SVG Export Plug-In . SVG Version: 6.00 Build 0)  -->
<svg version="1.1" id="Layer_2" xmlns="http://www.w3.org/2000/svg" xmlns:xlink="http://www.w3.org/1999/xlink" x="0px" y="0px"
	 viewBox="0 0 250 46.82" style="enable-background:new 0 0 250 46.82;" xml:space="preserve">
<style type="text/css">
	.st0{fill:url(#SVGID_1_);}
	.st1{fill:url(#SVGID_2_);}
	.st2{fill:url(#SVGID_3_);}
	.st3{fill:url(#SVGID_4_);}
	.st4{fill:url(#SVGID_5_);}
	.st5{fill:url(#SVGID_6_);}
	.st6{fill:url(#SVGID_7_);}
	.st7{fill:url(#SVGID_8_);}
	.st8{fill:url(#SVGID_9_);}
	.st9{fill:url(#SVGID_10_);}
	.st10{fill:url(#SVGID_11_);}
	.st11{fill:url(#SVGID_12_);}
	.st12{fill:url(#SVGID_13_);}
	.st13{fill:url(#SVGID_14_);}
	.st14{fill:url(#SVGID_15_);}
	.st15{fill:url(#SVGID_16_);}
	.st16{fill:url(#SVGID_17_);}
	.st17{fill:url(#SVGID_18_);}
	.st18{fill:url(#SVGID_19_);}
	.st19{fill:url(#SVGID_20_);}
	.st20{fill:url(#SVGID_21_);}
	.st21{fill:url(#SVGID_22_);}
	.st22{fill:#FFFFFF;}
</style>
<g>
	<linearGradient id="SVGID_1_" gradientUnits="userSpaceOnUse" x1="179.7271" y1="35.1989" x2="106.5564" y2="23.5736">
		<stop  offset="0" style="stop-color:#00BECF"/>
		<stop  offset="1" style="stop-color:#92FFC0"/>
	</linearGradient>
	<polygon class="st0" points="119.02,19.43 134.51,36.69 136.6,19.67 	"/>
	<linearGradient id="SVGID_2_" gradientUnits="userSpaceOnUse" x1="183.5903" y1="10.8833" x2="110.4196" y2="-0.7419">
		<stop  offset="0" style="stop-color:#00BECF"/>
		<stop  offset="1" style="stop-color:#92FFC0"/>
	</linearGradient>
	<polygon class="st1" points="142.34,4.44 125.58,0 133.11,4.53 	"/>
	<linearGradient id="SVGID_3_" gradientUnits="userSpaceOnUse" x1="181.8312" y1="21.9553" x2="108.6605" y2="10.33">
		<stop  offset="0" style="stop-color:#00BECF"/>
		<stop  offset="1" style="stop-color:#92FFC0"/>
	</linearGradient>
	<polygon class="st2" points="145.45,15.53 145.55,15.51 156.22,15.74 152.2,13.01 133.53,10.38 137.03,19.08 	"/>
	<linearGradient id="SVGID_4_" gradientUnits="userSpaceOnUse" x1="181.6069" y1="23.3668" x2="108.4362" y2="11.7415">
		<stop  offset="0" style="stop-color:#00BECF"/>
		<stop  offset="1" style="stop-color:#92FFC0"/>
	</linearGradient>
	<polygon class="st3" points="129.36,9.64 119.43,18.92 136.5,19.15 132.94,10.32 	"/>
	<linearGradient id="SVGID_5_" gradientUnits="userSpaceOnUse" x1="183.131" y1="13.7742" x2="109.9603" y2="2.149">
		<stop  offset="0" style="stop-color:#00BECF"/>
		<stop  offset="1" style="stop-color:#92FFC0"/>
	</linearGradient>
	<polygon class="st4" points="132.78,4.94 125.11,0.32 132.8,10.02 	"/>
	<linearGradient id="SVGID_6_" gradientUnits="userSpaceOnUse" x1="183.0052" y1="14.5659" x2="109.8345" y2="2.9407">
		<stop  offset="0" style="stop-color:#00BECF"/>
		<stop  offset="1" style="stop-color:#92FFC0"/>
	</linearGradient>
	<polygon class="st5" points="133.3,5.05 133.31,9.81 142.25,4.95 	"/>
	<linearGradient id="SVGID_7_" gradientUnits="userSpaceOnUse" x1="178.4528" y1="43.2192" x2="105.2821" y2="31.5939">
		<stop  offset="0" style="stop-color:#00BECF"/>
		<stop  offset="1" style="stop-color:#92FFC0"/>
	</linearGradient>
	<polygon class="st6" points="141.6,37.62 146.27,43.42 153.5,33.94 	"/>
	<linearGradient id="SVGID_8_" gradientUnits="userSpaceOnUse" x1="181.1922" y1="25.9772" x2="108.0215" y2="14.352">
		<stop  offset="0" style="stop-color:#00BECF"/>
		<stop  offset="1" style="stop-color:#92FFC0"/>
	</linearGradient>
	<polygon class="st7" points="156.15,16.25 145.6,16.03 137.36,19.5 144.47,25.89 149.58,26.57 	"/>
	<linearGradient id="SVGID_9_" gradientUnits="userSpaceOnUse" x1="182.4099" y1="18.3131" x2="109.2391" y2="6.6879">
		<stop  offset="0" style="stop-color:#00BECF"/>
		<stop  offset="1" style="stop-color:#92FFC0"/>
	</linearGradient>
	<polygon class="st8" points="167.77,17.75 164.46,14.18 161.73,13.27 156.98,15.81 	"/>
	<linearGradient id="SVGID_10_" gradientUnits="userSpaceOnUse" x1="183.1087" y1="13.9142" x2="109.938" y2="2.289">
		<stop  offset="0" style="stop-color:#00BECF"/>
		<stop  offset="1" style="stop-color:#92FFC0"/>
	</linearGradient>
	<polygon class="st9" points="152.04,12.46 147.93,4.51 143.87,4.66 134.14,9.95 	"/>
	<linearGradient id="SVGID_11_" gradientUnits="userSpaceOnUse" x1="180.0181" y1="33.367" x2="106.8474" y2="21.7417">
		<stop  offset="0" style="stop-color:#00BECF"/>
		<stop  offset="1" style="stop-color:#92FFC0"/>
	</linearGradient>
	<polygon class="st10" points="150.74,30.3 155.26,27.85 145.38,26.53 	"/>
	<linearGradient id="SVGID_12_" gradientUnits="userSpaceOnUse" x1="178.8819" y1="40.5186" x2="105.7112" y2="28.8933">
		<stop  offset="0" style="stop-color:#00BECF"/>
		<stop  offset="1" style="stop-color:#92FFC0"/>
	</linearGradient>
	<polygon class="st11" points="159.55,39.63 160.57,38.16 160.57,35.43 156.48,37.06 	"/>
	<linearGradient id="SVGID_13_" gradientUnits="userSpaceOnUse" x1="179.697" y1="35.388" x2="106.5263" y2="23.7628">
		<stop  offset="0" style="stop-color:#00BECF"/>
		<stop  offset="1" style="stop-color:#92FFC0"/>
	</linearGradient>
	<polygon class="st12" points="137.08,19.94 135,36.96 141.17,37.38 143.82,25.99 	"/>
	<linearGradient id="SVGID_14_" gradientUnits="userSpaceOnUse" x1="179.9887" y1="33.5522" x2="106.818" y2="21.9269">
		<stop  offset="0" style="stop-color:#00BECF"/>
		<stop  offset="1" style="stop-color:#92FFC0"/>
	</linearGradient>
	<polygon class="st13" points="162.44,29.24 159.85,32.53 163.71,31.6 165.64,29.44 162.36,28.57 	"/>
	<linearGradient id="SVGID_15_" gradientUnits="userSpaceOnUse" x1="181.2131" y1="25.8456" x2="108.0424" y2="14.2204">
		<stop  offset="0" style="stop-color:#00BECF"/>
		<stop  offset="1" style="stop-color:#92FFC0"/>
	</linearGradient>
	<polygon class="st14" points="169.78,24.13 168.45,24.08 166.89,21.01 171.11,21.35 168.35,18.38 156.86,16.31 156.35,27.56 
		162.28,27.98 162.29,28.02 166.29,29.07 166.29,29.09 167.02,28.97 169.45,26.03 168.92,24.99 	"/>
	<linearGradient id="SVGID_16_" gradientUnits="userSpaceOnUse" x1="178.2703" y1="44.368" x2="105.0996" y2="32.7428">
		<stop  offset="0" style="stop-color:#00BECF"/>
		<stop  offset="1" style="stop-color:#92FFC0"/>
	</linearGradient>
	<polygon class="st15" points="154.28,33.77 146.65,43.78 151,46.82 155.12,46.82 154.78,35.7 	"/>
	<linearGradient id="SVGID_17_" gradientUnits="userSpaceOnUse" x1="181.2777" y1="25.4392" x2="108.107" y2="13.8139">
		<stop  offset="0" style="stop-color:#00BECF"/>
		<stop  offset="1" style="stop-color:#92FFC0"/>
	</linearGradient>
	<polygon class="st16" points="167.77,21.6 168.78,23.58 170.99,23.64 169.56,25.09 169.81,25.59 171.4,23.67 171.4,21.89 	"/>
	<linearGradient id="SVGID_18_" gradientUnits="userSpaceOnUse" x1="178.1122" y1="45.3633" x2="104.9415" y2="33.738">
		<stop  offset="0" style="stop-color:#00BECF"/>
		<stop  offset="1" style="stop-color:#92FFC0"/>
	</linearGradient>
	<polygon class="st17" points="155.64,46.75 159.05,43.63 159.45,40.22 155.33,36.78 	"/>
	<linearGradient id="SVGID_19_" gradientUnits="userSpaceOnUse" x1="179.3656" y1="37.4738" x2="106.1949" y2="25.8486">
		<stop  offset="0" style="stop-color:#00BECF"/>
		<stop  offset="1" style="stop-color:#92FFC0"/>
	</linearGradient>
	<polygon class="st18" points="153.93,33.26 150.81,30.98 144.26,26.38 141.78,37.02 	"/>
	<linearGradient id="SVGID_20_" gradientUnits="userSpaceOnUse" x1="181.7557" y1="22.4304" x2="108.585" y2="10.8052">
		<stop  offset="0" style="stop-color:#00BECF"/>
		<stop  offset="1" style="stop-color:#92FFC0"/>
	</linearGradient>
	<polygon class="st19" points="126.23,7.01 112.71,13.85 118.59,18.99 128.88,9.38 	"/>
	<linearGradient id="SVGID_21_" gradientUnits="userSpaceOnUse" x1="181.1503" y1="26.2406" x2="107.9796" y2="14.6154">
		<stop  offset="0" style="stop-color:#00BECF"/>
		<stop  offset="1" style="stop-color:#92FFC0"/>
	</linearGradient>
	<polygon class="st20" points="156.31,16.96 150.14,26.65 155.84,27.41 	"/>
	<linearGradient id="SVGID_22_" gradientUnits="userSpaceOnUse" x1="183.1102" y1="13.9052" x2="109.9395" y2="2.28">
		<stop  offset="0" style="stop-color:#00BECF"/>
		<stop  offset="1" style="stop-color:#92FFC0"/>
	</linearGradient>
	<polygon class="st21" points="152.75,12.76 158.8,13.81 160.63,13.08 160.63,11.08 156.07,7.61 148.58,4.65 152.77,12.75 	"/>
</g>
<g>
	<path class="st22" d="M3.89,17.6L2.47,29.29h6.81l-0.27,2.13H0L1.69,17.6H3.89z"/>
	<path class="st22" d="M22.62,17.6l-0.25,2.05h-6.89l-0.46,3.8h6.11l-0.25,2.09h-6.13l-0.46,3.78h7.16l-0.27,2.11h-9.43l1.69-13.82
		H22.62z"/>
	<path class="st22" d="M38.8,31.34c-0.68,0.22-1.41,0.32-2.18,0.32c-1.1,0-2.15-0.22-3.16-0.67c-1.01-0.45-1.83-1.15-2.48-2.12
		c-0.65-0.96-0.97-2.18-0.97-3.64c0-1.33,0.26-2.58,0.77-3.75c0.51-1.17,1.31-2.12,2.39-2.86c1.08-0.73,2.43-1.1,4.05-1.1
		c0.9,0,1.72,0.13,2.47,0.4c0.75,0.27,1.39,0.6,1.94,1.01l-1.14,2.01c-0.42-0.35-0.91-0.66-1.47-0.91
		c-0.56-0.25-1.17-0.38-1.83-0.38c-1.01,0-1.89,0.24-2.62,0.72c-0.73,0.48-1.29,1.13-1.68,1.96c-0.39,0.82-0.58,1.73-0.58,2.73
		c0,0.87,0.18,1.65,0.55,2.33c0.37,0.68,0.88,1.2,1.55,1.58c0.66,0.37,1.43,0.56,2.31,0.56c0.65,0,1.19-0.08,1.63-0.25
		c0.44-0.16,0.9-0.38,1.39-0.65l0.68,2.03C40.02,30.9,39.48,31.12,38.8,31.34z"/>
	<path class="st22" d="M46.67,30.81c-1.01-0.49-1.83-1.23-2.46-2.22c-0.63-0.99-0.94-2.19-0.94-3.61c0-1.18,0.29-2.34,0.86-3.5
		c0.58-1.16,1.43-2.12,2.57-2.88c1.14-0.76,2.5-1.14,4.08-1.14c1.14,0,2.21,0.25,3.23,0.74s1.83,1.23,2.46,2.22
		c0.63,0.99,0.94,2.19,0.94,3.61c0,1.18-0.29,2.34-0.86,3.5c-0.58,1.16-1.43,2.12-2.57,2.88c-1.14,0.76-2.5,1.14-4.08,1.14
		C48.76,31.55,47.68,31.3,46.67,30.81z M52.83,28.63c0.78-0.53,1.36-1.2,1.74-2.01c0.38-0.81,0.57-1.63,0.57-2.47
		c0-0.81-0.19-1.56-0.58-2.26c-0.39-0.7-0.92-1.25-1.59-1.67c-0.68-0.42-1.43-0.63-2.27-0.63c-1.15,0-2.11,0.27-2.88,0.8
		c-0.77,0.53-1.34,1.2-1.71,2.01c-0.37,0.81-0.55,1.63-0.55,2.47c0,0.81,0.19,1.57,0.56,2.27c0.37,0.7,0.9,1.26,1.57,1.67
		c0.67,0.41,1.42,0.62,2.26,0.62C51.09,29.42,52.05,29.16,52.83,28.63z"/>
	<path class="st22" d="M62.35,26.82c0,0.73,0.26,1.35,0.77,1.85c0.51,0.5,1.16,0.75,1.95,0.75c0.58,0,1.12-0.13,1.62-0.4
		c0.5-0.27,0.91-0.63,1.24-1.08c0.33-0.46,0.52-0.96,0.59-1.5l1.08-8.84h2.28l-1.08,8.9c-0.13,0.99-0.47,1.87-1.02,2.64
		c-0.56,0.77-1.27,1.37-2.14,1.79c-0.87,0.42-1.82,0.64-2.83,0.64c-0.91,0-1.73-0.18-2.45-0.55c-0.72-0.37-1.28-0.88-1.69-1.55
		c-0.41-0.66-0.61-1.43-0.61-2.29c0-0.3,0.01-0.53,0.04-0.68l1.08-8.9h2.28l-1.08,8.84C62.36,26.53,62.35,26.66,62.35,26.82z"/>
	<path class="st22" d="M83.38,31.27c-0.87,0.23-1.7,0.35-2.47,0.35c-0.89,0-1.86-0.2-2.92-0.61c-1.06-0.4-1.99-1.08-2.77-2.04
		s-1.18-2.2-1.18-3.75c0-1.19,0.27-2.37,0.8-3.55c0.53-1.18,1.36-2.16,2.49-2.95c1.13-0.79,2.52-1.19,4.19-1.19
		c0.81,0,1.62,0.11,2.43,0.32c0.81,0.22,1.53,0.53,2.16,0.95l-0.99,1.99c-0.48-0.32-1.04-0.57-1.67-0.76
		c-0.63-0.19-1.24-0.28-1.82-0.28c-1.25,0-2.28,0.28-3.07,0.84c-0.8,0.56-1.37,1.24-1.71,2.06s-0.51,1.65-0.51,2.5
		c0,1.01,0.28,1.84,0.84,2.49c0.56,0.65,1.22,1.11,1.98,1.39c0.77,0.28,1.48,0.42,2.15,0.42c0.78,0,1.41-0.11,1.88-0.34l0.28-2.47
		h-2.6l0.27-2.11h4.84l-0.7,5.94C84.89,30.77,84.25,31.04,83.38,31.27z"/>
	<path class="st22" d="M95.98,28.17h-5.03l-1.73,3.25h-2.16l7.88-14.39h0.13l4.35,14.39h-2.54L95.98,28.17z M95.47,26.27l-1.18-4.31
		l-2.32,4.31H95.47z"/>
	<path class="st22" d="M111.09,24.42c-0.46,0.73-1.09,1.28-1.9,1.66l2.71,5.33h-2.58l-2.52-4.8h-0.21h-1.99l-0.61,4.8h-2.2
		l1.69-13.82h3.89c1.42,0,2.54,0.34,3.36,1.01c0.82,0.67,1.23,1.6,1.23,2.79c0,0.13-0.01,0.34-0.04,0.65
		C111.83,22.9,111.55,23.69,111.09,24.42z M109.15,20.35c-0.34-0.42-0.89-0.63-1.66-0.63h-2.05l-0.59,4.76h1.97
		c0.68,0,1.24-0.15,1.66-0.45c0.42-0.3,0.72-0.65,0.9-1.06c0.18-0.41,0.27-0.81,0.27-1.19C109.65,21.25,109.48,20.77,109.15,20.35z"
		/>
</g>
<g>
	<path class="st22" d="M184.38,31.34c-0.68,0.22-1.41,0.32-2.18,0.32c-1.1,0-2.15-0.22-3.16-0.67c-1.01-0.45-1.83-1.15-2.48-2.12
		c-0.65-0.96-0.97-2.18-0.97-3.64c0-1.33,0.26-2.58,0.77-3.75c0.51-1.17,1.31-2.12,2.39-2.86c1.08-0.73,2.43-1.1,4.05-1.1
		c0.9,0,1.72,0.13,2.47,0.4c0.75,0.27,1.39,0.6,1.94,1.01l-1.14,2.01c-0.42-0.35-0.91-0.66-1.47-0.91
		c-0.56-0.25-1.17-0.38-1.83-0.38c-1.01,0-1.89,0.24-2.62,0.72c-0.73,0.48-1.29,1.13-1.68,1.96s-0.58,1.73-0.58,2.73
		c0,0.87,0.18,1.65,0.55,2.33c0.37,0.68,0.88,1.2,1.55,1.58c0.66,0.37,1.43,0.56,2.31,0.56c0.65,0,1.19-0.08,1.63-0.25
		c0.44-0.16,0.9-0.38,1.39-0.65l0.68,2.03C185.61,30.9,185.07,31.12,184.38,31.34z"/>
	<path class="st22" d="M192.72,17.6l-1.42,11.69h6.81l-0.27,2.13h-9.02l1.69-13.82H192.72z"/>
	<path class="st22" d="M204.56,17.6l-1.69,13.82h-2.28l1.69-13.82H204.56z"/>
	<path class="st22" d="M222,31.42h-6.34c-0.44,0.09-0.94,0.13-1.5,0.13c-1.14,0-2.21-0.25-3.23-0.74c-1.01-0.49-1.83-1.23-2.46-2.22
		c-0.63-0.99-0.94-2.19-0.94-3.61c0-1.18,0.29-2.34,0.86-3.5c0.58-1.16,1.43-2.12,2.57-2.88c1.14-0.76,2.5-1.14,4.08-1.14
		c1.14,0,2.21,0.25,3.23,0.74c1.01,0.49,1.83,1.23,2.46,2.22c0.63,0.99,0.94,2.19,0.94,3.61c0,0.99-0.21,1.98-0.62,2.98
		c-0.41,1-1.01,1.87-1.79,2.6l3-0.36L222,31.42z M210.38,27.14c0.37,0.7,0.9,1.26,1.57,1.67c0.67,0.41,1.42,0.62,2.26,0.62
		c1.15,0,2.12-0.27,2.89-0.8c0.78-0.53,1.36-1.2,1.74-2.01c0.38-0.81,0.57-1.63,0.57-2.47c0-0.81-0.19-1.56-0.58-2.26
		c-0.39-0.7-0.92-1.25-1.59-1.67c-0.68-0.42-1.43-0.63-2.27-0.63c-1.15,0-2.11,0.27-2.89,0.8c-0.77,0.53-1.34,1.2-1.71,2.01
		c-0.37,0.81-0.55,1.63-0.55,2.47C209.82,25.68,210.01,26.43,210.38,27.14z"/>
	<path class="st22" d="M227.47,26.82c0,0.73,0.26,1.35,0.77,1.85c0.51,0.5,1.16,0.75,1.95,0.75c0.58,0,1.12-0.13,1.62-0.4
		c0.5-0.27,0.91-0.63,1.24-1.08c0.33-0.46,0.52-0.96,0.59-1.5l1.08-8.84H237l-1.08,8.9c-0.13,0.99-0.47,1.87-1.02,2.64
		c-0.56,0.77-1.27,1.37-2.14,1.79c-0.87,0.42-1.82,0.64-2.83,0.64c-0.91,0-1.73-0.18-2.45-0.55c-0.72-0.37-1.28-0.88-1.69-1.55
		c-0.4-0.66-0.61-1.43-0.61-2.29c0-0.3,0.01-0.53,0.04-0.68l1.08-8.9h2.28l-1.08,8.84C227.48,26.53,227.47,26.66,227.47,26.82z"/>
	<path class="st22" d="M250,17.6l-0.25,2.05h-6.89l-0.46,3.8h6.11l-0.25,2.09h-6.13l-0.46,3.78h7.16l-0.27,2.11h-9.43l1.69-13.82
		H250z"/>
</g>
</svg>
